<svg width="24" height="24" fill="none" xmlns="http://www.w3.org/2000/svg" class="aparat-logo relative" style="z-index:2"><path d="M11.332 2.81l-2.129-.48a3.225 3.225 0 00-3.855 2.434l-.485 2.148a8.885 8.885 0 016.47-4.101zM3.56 12.67l-.48 2.13a3.225 3.225 0 002.435 3.857l2.147.485a8.887 8.887 0 01-4.101-6.469v-.002zM19.236 4.597L17.09 4.11a8.886 8.886 0 014.1 6.472l.482-2.13a3.226 3.226 0 00-2.435-3.856zM13.42 20.44l2.13.48a3.225 3.225 0 003.855-2.434l.485-2.147a8.885 8.885 0 01-6.47 4.1z" fill="#363636"></path><path d="M12.375 3.73a7.895 7.895 0 10.001 15.79 7.895 7.895 0 00-.001-15.79zm-1.974 2.468a1.974 1.974 0 11-.002 3.948 1.974 1.974 0 01.003-3.948H10.4zm-1.48 9.375a1.974 1.974 0 11-.002-3.948 1.974 1.974 0 01.002 3.948zm2.467-3.947a.986.986 0 111.971-.044.986.986 0 01-1.97.043h-.001zm2.96 5.428a1.974 1.974 0 11-.001-3.947 1.974 1.974 0 01.002 3.946zm1.48-5.428a1.974 1.974 0 110-3.947 1.974 1.974 0 01.002 3.946h-.001z" fill="#363636"></path></svg>