<svg width="18" height="18" viewBox="0 0 24 24" fill="rgba(240, 20, 54, 1)" xmlns="http://www.w3.org/2000/svg" class="ml-2"><g fill-rule="evenodd" clip-rule="evenodd" fill="current"><path d="M12 3.5c-4.687 0-8.5 3.813-8.5 8.5 0 4.687 3.813 8.5 8.5 8.5 4.687 0 8.5-3.813 8.5-8.5 0-4.687-3.813-8.5-8.5-8.5zM12 22C6.486 22 2 17.514 2 12S6.486 2 12 2s10 4.486 10 10-4.486 10-10 10z"></path><path d="M11.994 13.373a.75.75 0 01-.75-.75V8.204a.75.75 0 011.5 0v4.419a.75.75 0 01-.75.75zM12.004 16.796a1.003 1.003 0 01-1.005-1c0-.553.443-1 .995-1h.01a1 1 0 110 2z"></path></g></svg>