<svg xmlns="http://www.w3.org/2000/svg" xmlns:xlink="http://www.w3.org/1999/xlink" width="460" height="104.001" viewBox="0 0 460 104.001"><defs><filter id="a" x="0" y="0" width="460" height="104.001" filterUnits="userSpaceOnUse"><feOffset dy="-2" input="SourceAlpha"/><feGaussianBlur stdDeviation="8" result="b"/><feFlood flood-color="#161616" flood-opacity="0.078"/><feComposite operator="in" in2="b"/><feComposite in="SourceGraphic"/></filter></defs><g transform="matrix(1, 0, 0, 1, 0, 0)" filter="url(#a)"><path d="M-187,1343H-599v-56h155.173a17.886,17.886,0,0,1,12.6,5.336A17.883,17.883,0,0,1-426,1305a32.79,32.79,0,0,0,2.594,12.845,32.9,32.9,0,0,0,7.072,10.49,32.911,32.911,0,0,0,10.49,7.072A32.8,32.8,0,0,0-393,1338a32.8,32.8,0,0,0,12.846-2.593,32.911,32.911,0,0,0,10.49-7.072,32.9,32.9,0,0,0,7.072-10.49A32.79,32.79,0,0,0-360,1305a17.884,17.884,0,0,1,5.222-12.663A17.887,17.887,0,0,1-342.172,1287H-187v56Zm-178.33-55.991h0l0,0,0-.007h21.378Zm-55.341,0-21.371-.01h21.377l0,.007h0Z" transform="translate(623 -1261)" fill="#fff"/></g></svg>