<svg viewBox="0 0 21 20" fill="none" xmlns="http://www.w3.org/2000/svg" width="20px" height="20px"><mask id="Heart_svg__a" maskUnits="userSpaceOnUse" x="0" y="0" width="21" height="20"><path fill-rule="evenodd" clip-rule="evenodd" d="M0 0h20.473v19.501H0V0z" fill="#fff"></path></mask><g mask="url(#Heart_svg__a)"><path fill-rule="evenodd" clip-rule="evenodd" d="M1.824 9.123c1.402 4.362 6.94 7.89 8.413 8.762 1.477-.882 7.056-4.448 8.413-8.758.89-2.786.064-6.315-3.222-7.374-1.592-.51-3.45-.2-4.731.792a.75.75 0 01-.91.006 5.234 5.234 0 00-4.75-.798C1.758 2.811.934 6.34 1.825 9.123zm8.414 10.378a.748.748 0 01-.36-.09c-.312-.172-7.685-4.236-9.482-9.83H.395C-.733 6.057.523 1.631 4.578.324a6.729 6.729 0 015.657.714C11.86.011 14.02-.273 15.887.325c4.059 1.31 5.319 5.734 4.192 9.255-1.74 5.53-9.166 9.655-9.481 9.828a.743.743 0 01-.36.093z" fill="#F01436"></path></g><path fill-rule="evenodd" clip-rule="evenodd" d="M16.154 7.624a.75.75 0 01-.747-.689 2.024 2.024 0 00-1.4-1.769.75.75 0 01.46-1.428 3.525 3.525 0 012.436 3.075.75.75 0 01-.75.811z" fill="#F01436"></path></svg>
