<?xml version="1.0" encoding="iso-8859-1"?>
<!-- Generator: Adobe Illustrator 19.0.0, SVG Export Plug-In . SVG Version: 6.00 Build 0)  -->
<svg version="1.1" id="Layer_1" xmlns="http://www.w3.org/2000/svg" xmlns:xlink="http://www.w3.org/1999/xlink" x="0px" y="0px"
	 viewBox="0 0 512 512" style="enable-background:new 0 0 512 512;" xml:space="preserve">
<g>
	<g>
		<rect x="281.078" y="224.852" width="15.673" height="15.673"/>
	</g>
</g>
<g>
	<g>
		<path d="M469.394,435.925v0.001L265.164,98.946L283.6,68.527l-13.404-8.124L256,83.825l-14.196-23.424L228.4,68.526l18.436,30.419
			L42.607,435.925H0v15.673h512v-15.673H469.394z M256,114.067l41.182,67.949H214.82L256,114.067z M186.322,435.926L256,320.957
			l69.678,114.969H186.322z M331.755,415.711l-61.841-102.038h61.841V415.711z M347.429,435.926V297.999h-95.843l-83.592,137.927
			H60.934L179.356,240.53h86.048v-15.673h-76.549l16.466-27.167h101.36l144.386,238.237H347.429z"/>
	</g>
</g>
<g>
</g>
<g>
</g>
<g>
</g>
<g>
</g>
<g>
</g>
<g>
</g>
<g>
</g>
<g>
</g>
<g>
</g>
<g>
</g>
<g>
</g>
<g>
</g>
<g>
</g>
<g>
</g>
<g>
</g>
</svg>
