<svg width="18" height="18" viewBox="0 0 24 24" fill="#000" xmlns="http://www.w3.org/2000/svg" class="ml-2"><path fill-rule="evenodd" clip-rule="evenodd" d="M12.25 8.5A1.751 1.751 0 1014 10.251c0-.966-.784-1.751-1.75-1.751zm0 5A3.253 3.253 0 019 10.251 3.254 3.254 0 0112.25 7a3.254 3.254 0 013.25 3.251 3.253 3.253 0 01-3.25 3.249z" fill="current"></path><mask id="Location_svg__a" maskUnits="userSpaceOnUse" x="4" y="2" width="17" height="20"><path fill-rule="evenodd" clip-rule="evenodd" d="M4 2h16.5v19.5H4V2z" fill="#fff"></path></mask><g mask="url(#Location_svg__a)"><path fill-rule="evenodd" clip-rule="evenodd" d="M12.25 3.5c-3.722 0-6.75 3.057-6.75 6.813 0 4.779 5.623 9.435 6.75 9.683 1.126-.249 6.75-4.905 6.75-9.683C19 6.557 15.972 3.5 12.25 3.5zm0 18C10.455 21.5 4 15.948 4 10.313 4 5.729 7.7 2 12.25 2c4.549 0 8.25 3.729 8.25 8.313 0 5.635-6.457 11.187-8.25 11.187z" fill="current"></path></g></svg>