<svg width="18" height="18" viewBox="0 0 24 24" fill="rgba(2, 160, 164, 1)" xmlns="http://www.w3.org/2000/svg"
     class="ml-2">
    <mask id="TicketStar_svg__a" maskUnits="userSpaceOnUse" x="2" y="3" width="20" height="19">
        <path fill-rule="evenodd" clip-rule="evenodd" d="M2 3h20v18.166H2V3z" fill="#fff"></path>
    </mask>
    <g mask="url(#TicketStar_svg__a)">
        <path fill-rule="evenodd" clip-rule="evenodd"
              d="M3.5 14.98v2.044c0 .706.274 1.37.773 1.868a2.626 2.626 0 001.868.774h11.716a2.646 2.646 0 002.643-2.64V14.98a2.996 2.996 0 01-2.24-2.893c0-1.39.953-2.56 2.239-2.895l.001-2.045A2.645 2.645 0 0017.861 4.5H6.144A2.647 2.647 0 003.5 7.143v2.116c.486.117.937.355 1.312.705.569.531.897 1.252.925 2.03.003 1.466-.95 2.65-2.237 2.986zm14.357 6.186H6.142a4.115 4.115 0 01-2.93-1.213A4.117 4.117 0 012 17.025v-2.7a.75.75 0 01.75-.75 1.49 1.49 0 001.489-1.49 1.427 1.427 0 00-.45-1.024 1.36 1.36 0 00-1.013-.377.766.766 0 01-.547-.21.753.753 0 01-.229-.54v-2.79A4.15 4.15 0 016.144 3h11.712A4.148 4.148 0 0122 7.147v2.7a.75.75 0 01-.75.75c-.821 0-1.49.668-1.49 1.488.001.821.669 1.49 1.49 1.49a.75.75 0 01.75.75v2.7a4.149 4.149 0 01-4.143 4.142z"
              fill="current"></path>
    </g>
    <path fill-rule="evenodd" clip-rule="evenodd"
          d="M10.104 11.382l.509.495c.276.271.4.657.335 1.034l-.12.699.629-.332c.339-.18.746-.18 1.088.002l.625.329-.12-.7a1.17 1.17 0 01.336-1.032l.509-.495-.705-.102a1.16 1.16 0 01-.875-.638L12 10.005l-.315.637a1.162 1.162 0 01-.877.638l-.704.102zm3.514 4.005a1.16 1.16 0 01-.544-.136L12 14.688l-1.075.564a1.16 1.16 0 01-1.227-.088 1.16 1.16 0 01-.463-1.139l.205-1.196-.87-.847a1.158 1.158 0 01-.295-1.191c.138-.425.498-.73.939-.795l1.204-.176.537-1.088c.197-.4.597-.65 1.045-.65.446 0 .847.25 1.044.65l.538 1.088 1.202.176c.442.064.803.37.94.794.137.425.024.882-.296 1.194l-.87.847.206 1.194a1.164 1.164 0 01-1.146 1.362z"
          fill="current"></path>
</svg>