<svg width="24" height="24" viewBox="0 0 24 24" fill="rgba(2, 160, 164, 1)" xmlns="http://www.w3.org/2000/svg">
    <g fill-rule="evenodd" clip-rule="evenodd" fill="current">
        <path d="M6.328 8.347l.603 7.172c.044.552.495.966 1.046.966h10.917c.52 0 .966-.388 1.04-.903l.95-6.559a.587.587 0 00-.112-.438.58.58 0 00-.388-.23c-.21.007-8.882-.005-14.056-.008zm1.647 9.638a2.562 2.562 0 01-2.54-2.343L4.52 4.748l-1.507-.26A.752.752 0 012.4 3.62a.76.76 0 01.867-.61l2.08.36c.335.058.59.336.619.676l.235 2.801c14.276.006 14.322.013 14.39.021a2.083 2.083 0 011.382.82c.334.447.474.998.394 1.55l-.95 6.558a2.562 2.562 0 01-2.522 2.19H7.975z"></path>
        <path d="M17.287 12.044h-2.772a.75.75 0 110-1.5h2.772a.75.75 0 010 1.5zM7.545 20.702a.543.543 0 110 1.089.544.544 0 110-1.09z"></path>
    </g>
    <mask id="Buy_svg__a" maskUnits="userSpaceOnUse" x="6" y="20" width="3" height="2">
        <path fill-rule="evenodd" clip-rule="evenodd" d="M6.999 21.245a.545.545 0 101.09.003.545.545 0 00-1.09-.003z"
              fill="#fff"></path>
    </mask>
    <g mask="url(#Buy_svg__a)">
        <path fill-rule="evenodd" clip-rule="evenodd" d="M2 26.79h11.089V15.703H1.999V26.79z" fill="current"></path>
    </g>
    <g fill-rule="evenodd" clip-rule="evenodd" fill="current">
        <path d="M7.544 21.04a.205.205 0 00-.205.206c0 .227.41.227.41 0a.206.206 0 00-.205-.205zm0 1.5a1.296 1.296 0 010-2.588 1.296 1.296 0 010 2.589zM18.825 20.702a.544.544 0 11.002 1.088.544.544 0 01-.002-1.088z"></path>
    </g>
    <mask id="Buy_svg__b" maskUnits="userSpaceOnUse" x="18" y="20" width="2" height="2">
        <path fill-rule="evenodd" clip-rule="evenodd" d="M18.28 21.245a.545.545 0 101.089.003.545.545 0 00-1.09-.003z"
              fill="#fff"></path>
    </mask>
    <g mask="url(#Buy_svg__b)">
        <path fill-rule="evenodd" clip-rule="evenodd" d="M13.28 26.79h11.09V15.703H13.28V26.79z" fill="current"></path>
    </g>
    <path fill-rule="evenodd" clip-rule="evenodd"
          d="M18.824 21.04a.205.205 0 00-.204.206c0 .229.41.227.41 0a.206.206 0 00-.206-.205zm0 1.5a1.296 1.296 0 010-2.588c.715 0 1.296.58 1.296 1.294 0 .714-.581 1.295-1.296 1.295z"
          fill="current"></path>
</svg>