<?xml version="1.0" encoding="iso-8859-1"?>
<!-- Generator: Adobe Illustrator 19.0.0, SVG Export Plug-In . SVG Version: 6.00 Build 0)  -->
<svg version="1.1" id="Layer_1" xmlns="http://www.w3.org/2000/svg" xmlns:xlink="http://www.w3.org/1999/xlink" x="0px" y="0px"
	 viewBox="0 0 512.001 512.001" style="enable-background:new 0 0 512.001 512.001;" xml:space="preserve">
<g>
	<g>
		<path style="fill:#010101;" d="M507.238,185.034c-3.277-4.369-9.831-7.646-16.385-7.646h-19.968
			c2.759-29.41-4.418-58.285-21.541-83.018c-19.662-28.401-48.063-46.97-81.925-53.524c-40.416-7.646-81.925,5.462-111.418,32.77
			c-29.493-28.401-71.002-40.416-111.418-32.77C110.72,47.4,82.319,65.969,62.657,94.37c-16.171,24.733-24.054,53.608-21.493,83.018
			H21.148c-6.554,0-12.016,2.185-16.385,7.646c-4.369,4.369-5.462,10.923-4.369,17.477l43.693,204.267
			c2.185,9.831,10.923,16.385,20.754,16.385h8.739v28.401c0,12.016,9.831,21.847,21.847,21.847s20.754-9.831,21.847-21.847v-28.401
			h277.453v28.401c0,12.016,9.831,21.847,21.847,21.847s21.847-9.831,21.847-21.847v-28.401h8.739
			c9.831,0,18.57-6.554,20.754-16.385l43.693-204.267C512.7,197.05,511.607,190.496,507.238,185.034z M98.704,119.494
			c13.108-19.662,32.77-31.678,54.617-36.047c32.77-6.554,65.54,7.646,85.202,34.955c4.369,5.462,10.923,8.739,17.477,8.739
			s13.108-3.277,17.477-8.739c18.57-27.308,52.432-41.509,85.202-34.955c22.939,4.369,41.509,17.477,54.617,36.047
			c12.02,17.028,16.669,37.729,13.993,57.894h-20.547c-1.137,0-2.253,0.089-3.344,0.258c-9.233,0.217-16.934,6.372-19.595,16.127
			l-21.847,92.849H148.952l-22.939-92.849c-2.474-8.248-9.932-14.625-18.139-15.844c-1.546-0.35-3.151-0.541-4.8-0.541H84.711
			C82.035,157.223,86.684,136.522,98.704,119.494z M429.682,381.655h-3.616c-2.875-1.398-6.096-2.185-9.492-2.185
			s-6.618,0.786-9.492,2.185H104.919c-2.875-1.398-6.096-2.185-9.492-2.185s-6.618,0.786-9.492,2.185h-3.616L47.364,221.081H88.6
			l23.212,92.849c2.185,9.831,10.923,16.385,20.754,16.385h246.868c9.831,0,18.57-7.646,19.662-16.385l22.284-92.849h43.256
			L429.682,381.655z"/>
	</g>
</g>
<g>
</g>
<g>
</g>
<g>
</g>
<g>
</g>
<g>
</g>
<g>
</g>
<g>
</g>
<g>
</g>
<g>
</g>
<g>
</g>
<g>
</g>
<g>
</g>
<g>
</g>
<g>
</g>
<g>
</g>
</svg>
