<svg viewBox="0 0 17 16" xmlns="http://www.w3.org/2000/svg" fill="rgba(54, 54, 54, 1)" width="20px" height="20px"><path fill-rule="evenodd" clip-rule="evenodd" d="M8.791 1.75a.393.393 0 00-.361.22L6.908 5.011a1.65 1.65 0 01-1.242.891l-3.406.491a.389.389 0 00-.325.27.369.369 0 00.1.387L4.5 9.418c.392.377.57.921.477 1.454l-.58 3.341c-.035.21.095.331.154.373.061.046.226.139.43.032l3.046-1.579a1.67 1.67 0 011.53 0l3.046 1.579c.204.105.37.013.432-.032a.372.372 0 00.153-.373l-.581-3.341a1.627 1.627 0 01.477-1.454l2.463-2.367a.366.366 0 00.101-.388.386.386 0 00-.324-.269l-3.407-.49c-.535-.077-1-.412-1.24-.893L9.152 1.969a.391.391 0 00-.36-.219zM4.79 15.917c-.344 0-.686-.109-.978-.322a1.62 1.62 0 01-.645-1.596l.58-3.341a.379.379 0 00-.113-.339L1.17 7.952a1.616 1.616 0 01-.424-1.671A1.633 1.633 0 012.08 5.158l3.407-.491a.396.396 0 00.302-.215L7.312 1.41C7.593.85 8.16.5 8.792.5c.631 0 1.198.348 1.479.91l1.523 3.042c.057.115.17.196.3.215l3.407.49a1.633 1.633 0 01.911 2.795L13.95 10.32a.377.377 0 00-.112.338l.581 3.342a1.62 1.62 0 01-.647 1.596 1.645 1.645 0 01-1.745.132L8.98 14.149a.415.415 0 00-.38 0l-3.045 1.579c-.243.126-.505.189-.767.189z"></path></svg>