<svg xmlns="http://www.w3.org/2000/svg" width="13px" height="13px" viewBox="0 0 15 15"><path d="M11.2 8.95a.688.688 0 00-.2.605l.555 3.078a.67.67 0 01-.282.672.687.687 0 01-.73.05l-2.77-1.44a.715.715 0 00-.312-.083h-.168a.5.5 0 00-.168.055l-2.77 1.449a.73.73 0 01-.445.07.693.693 0 01-.555-.793L3.91 9.54a.689.689 0 00-.2-.613L1.458 6.738a.663.663 0 01-.168-.707.698.698 0 01.555-.468l3.105-.45A.702.702 0 005.5 4.73l1.367-2.804a.59.59 0 01.125-.168l.059-.047a.374.374 0 01.097-.078l.07-.028.106-.042h.262a.699.699 0 01.55.375L9.524 4.73a.7.7 0 00.52.383l3.105.45c.262.039.485.218.57.468a.675.675 0 01-.183.707zm0 0" fill="#ffcc04"></path></svg>