<svg width="24" height="24" fill="none" xmlns="http://www.w3.org/2000/svg" class="twitter-logo relative" style="z-index:2"><path d="M15.3 6.234c-.76 0-1.49.288-2.032.803a2.763 2.763 0 00-.868 1.951l-.028 1.524a.564.564 0 01-.21.43.607.607 0 01-.47.134l-1.561-.205c-2.054-.271-4.022-1.186-5.91-2.708-.598 3.202.57 5.42 3.383 7.131l1.747 1.063a.59.59 0 01.2.202.566.566 0 01-.166.758l-1.592 1.125c.947.057 1.846.017 2.592-.126 4.718-.912 7.855-4.346 7.855-10.01 0-.463-1.012-2.072-2.94-2.072zm-4.9 2.718c.018-.932.319-1.84.867-2.607a4.874 4.874 0 012.212-1.708 5.055 5.055 0 012.82-.24 4.95 4.95 0 012.486 1.31c.711-.005 1.316.169 2.669-.624-.335 1.586-.5 2.275-1.214 3.222 0 7.393-4.697 10.988-9.463 11.908-3.268.63-8.02-.406-9.382-1.781.694-.053 3.514-.346 5.144-1.5-1.379-.88-6.868-4.004-3.261-12.405 1.693 1.913 3.41 3.215 5.15 3.906 1.158.46 1.442.45 1.973.52H10.4z" fill="#363636"></path></svg>