<svg xmlns="http://www.w3.org/2000/svg" xmlns:xlink="http://www.w3.org/1999/xlink" version="1.1" width="256" height="256" viewBox="0 0 256 256" xml:space="preserve">
<desc>Created with Fabric.js 1.7.22</desc>
<defs>
</defs>
<g transform="translate(128 128) scale(0.72 0.72)" style="">
	<g style="stroke: none; stroke-width: 0; stroke-dasharray: none; stroke-linecap: butt; stroke-linejoin: miter; stroke-miterlimit: 10; fill: none; fill-rule: nonzero; opacity: 1;" transform="translate(-175.05 -175.05000000000004) scale(3.89 3.89)" >
	<path d="M 78.609 89.988 c -2.918 0 -5.836 -1.11 -8.058 -3.332 L 34.827 50.932 c -9.474 3.307 -20.002 0.936 -27.155 -6.218 C 0.63 37.673 -1.79 27.408 1.355 17.924 c 0.219 -0.658 0.763 -1.156 1.437 -1.316 c 0.675 -0.159 1.385 0.042 1.875 0.532 l 11.441 11.441 c 1.703 1.702 3.978 2.614 6.376 2.584 c 2.407 -0.036 4.644 -1.023 6.298 -2.78 c 3.235 -3.436 3.006 -9.092 -0.511 -12.609 L 17.151 4.656 c -0.491 -0.49 -0.692 -1.2 -0.532 -1.875 c 0.16 -0.675 0.658 -1.219 1.316 -1.437 C 27.42 -1.8 37.685 0.619 44.725 7.66 c 7.153 7.153 9.525 17.681 6.218 27.155 l 35.725 35.725 l 0 0 c 4.443 4.443 4.443 11.673 0 16.116 C 84.447 88.878 81.528 89.988 78.609 89.988 z M 35.328 46.606 c 0.52 0 1.032 0.203 1.414 0.586 L 73.38 83.829 c 2.886 2.883 7.578 2.881 10.461 0 c 2.882 -2.884 2.882 -7.576 0 -10.461 L 47.203 36.732 c -0.569 -0.568 -0.741 -1.423 -0.438 -2.167 c 3.374 -8.295 1.464 -17.745 -4.868 -24.076 c -5.162 -5.162 -12.376 -7.391 -19.428 -6.17 l 8.631 8.631 c 5.031 5.03 5.297 13.185 0.595 18.178 c -2.403 2.551 -5.652 3.985 -9.15 4.037 c -3.5 0.042 -6.789 -1.281 -9.263 -3.755 l -8.952 -8.952 c -1.221 7.057 1.008 14.266 6.17 19.428 c 6.332 6.33 15.782 8.244 24.076 4.868 C 34.819 46.654 35.075 46.606 35.328 46.606 z" style="stroke: none; stroke-width: 1; stroke-dasharray: none; stroke-linecap: butt; stroke-linejoin: miter; stroke-miterlimit: 10; fill: rgb(0,0,0); fill-rule: nonzero; opacity: 1;" transform=" matrix(1 0 0 1 0 0) " stroke-linecap="round" />
</g>
</g>
</svg>